<svg width="395.99999999999994" height="230.968939291465" viewBox="0 0 325 189.55784159021752" class="css-1j8o68f"><defs id="SvgjsDefs2199"><linearGradient id="SvgjsLinearGradient2206"><stop id="SvgjsStop2207" stop-color="#ef4136" offset="0"></stop><stop id="SvgjsStop2208" stop-color="#fbb040" offset="1"></stop></linearGradient><linearGradient id="SvgjsLinearGradient2209"><stop id="SvgjsStop2210" stop-color="#ef4136" offset="0"></stop><stop id="SvgjsStop2211" stop-color="#fbb040" offset="1"></stop></linearGradient><linearGradient id="SvgjsLinearGradient2212"><stop id="SvgjsStop2213" stop-color="#ef4136" offset="0"></stop><stop id="SvgjsStop2214" stop-color="#fbb040" offset="1"></stop></linearGradient></defs><g id="SvgjsG2200" featurekey="aMgJeN-0" transform="matrix(10.981127443896108,0,0,10.981127443896108,38,-0.0005236209604213766)" fill="url(#SvgjsLinearGradient2206)"><defs xmlns="http://www.w3.org/2000/svg"></defs><g xmlns="http://www.w3.org/2000/svg"><path class="fil0" d="M-0 1.59777c1.78679,0.0661596 2.02227,1.00406 4.40631,0.053922 1.95075,-0.777376 3.4272,-0.793342 5.33331,0.187197 -2.10525,-0.339498 -2.78435,-0.463404 -4.88033,0.300204 -1.69309,0.616853 -3.28485,0.565034 -4.85929,-0.541324zm13.2924 2.86284c1.38409,-0.671061 1.82178,-0.211386 3.72683,-1.37884 0.945261,-0.579375 1.3971,-0.869636 2.43032,-1.26134l-0.103829 0.0496197c1.30923,-0.464265 2.10372,-0.488071 3.42061,-0.0311677 -0.313015,0.0239972 -1.28275,0.0926426 -1.66891,0.149624 -2.82125,0.416366 -4.52085,3.06954 -7.80502,2.4721zm-10.8997 0.211003c1.67283,-1.5711 4.29827,-2.82938 6.43861,-2.27237 2.20497,0.57383 4.62917,1.04842 6.8459,0.428986 0.387302,-0.108226 1.24422,-0.414836 1.65122,-0.3264 -0.426883,0.372961 -1.0292,0.651845 -1.51574,0.878527 -2.11816,0.987136 -5.08502,0.894685 -7.25548,0.117787 -1.96194,-0.702229 -4.33623,0.57861 -6.16451,1.17347zm9.69134 -4.36969c2.33968,-0.394185 3.26372,0.625075 5.06054,0.305845l0.256416 -0.0044935c-1.27271,1.21927 -3.88697,0.0837512 -5.31696,-0.301351zm-8.55553 0.78359c1.62426,-1.20607 3.11648,-1.13112 4.96647,-1.03972l-0.0737126 -0.0175916c1.91337,0.116735 3.65025,1.81528 6.43565,1.66891 1.65982,-0.0872887 3.61909,-1.05702 5.29927,-1.21439 -0.77403,0.643814 -2.53032,1.30484 -3.41869,1.62034 -5.2248,1.85591 -5.54135,-1.00932 -9.67308,-1.36 -1.88985,-0.160332 -2.01519,0.296954 -3.53591,0.342462z" style="fill: url(#SvgjsLinearGradient2206);"></path></g></g><g id="SvgjsG2201" featurekey="8L6ael-0" transform="matrix(3.0469513498751812,0,0,3.0469513498751812,-4.936060111652073,55.78555624025127)" fill="url(#SvgjsLinearGradient2209)"><path d="M12.2 16.96 q0.3 0 0.5 0.21 t0.2 0.51 l0 1.46 q0 0.28 -0.2 0.49 t-0.5 0.21 l-9.88 0 q-0.28 0 -0.49 -0.21 t-0.21 -0.49 l0 -1.46 q0 -0.3 0.21 -0.51 t0.49 -0.21 l9.88 0 z M2.32 13.86 q-0.28 0 -0.49 -0.21 t-0.21 -0.49 l0 -1.5 q0 -0.28 0.21 -0.49 t0.49 -0.21 l8.98 0 q0.3 0 0.51 0.21 t0.21 0.49 l0 1.5 q0 0.28 -0.21 0.49 t-0.51 0.21 l-8.98 0 z M12.2 5 q0.3 0 0.5 0.21 t0.2 0.49 l0 1.46 q0 0.3 -0.2 0.51 t-0.5 0.21 l-9.88 0 q-0.28 0 -0.49 -0.21 t-0.21 -0.51 l0 -1.46 q0 -0.28 0.21 -0.49 t0.49 -0.21 l9.88 0 z M19.308 5 q0.28 0 0.49 0.21 t0.21 0.49 l0 13.4 q0 0.28 -0.21 0.49 t-0.49 0.21 l-1.52 0 q-0.28 0 -0.49 -0.21 t-0.21 -0.49 l0 -13.4 q0 -0.28 0.21 -0.49 t0.49 -0.21 l1.52 0 z M26.608000000000004 16.94 q0.3 0 0.5 0.21 t0.2 0.49 l0 1.46 q0 0.28 -0.2 0.49 t-0.5 0.21 l-4.66 0 q-0.3 0 -0.5 -0.21 t-0.2 -0.49 l0 -1.46 q0 -0.28 0.2 -0.49 t0.5 -0.21 l4.66 0 z M41.596000000000004 16.96 q0.3 0 0.5 0.21 t0.2 0.51 l0 1.46 q0 0.28 -0.2 0.49 t-0.5 0.21 l-9.88 0 q-0.28 0 -0.49 -0.21 t-0.21 -0.49 l0 -1.46 q0 -0.3 0.21 -0.51 t0.49 -0.21 l9.88 0 z M31.716 13.86 q-0.28 0 -0.49 -0.21 t-0.21 -0.49 l0 -1.5 q0 -0.28 0.21 -0.49 t0.49 -0.21 l8.98 0 q0.3 0 0.51 0.21 t0.21 0.49 l0 1.5 q0 0.28 -0.21 0.49 t-0.51 0.21 l-8.98 0 z M41.596000000000004 5 q0.3 0 0.5 0.21 t0.2 0.49 l0 1.46 q0 0.3 -0.2 0.51 t-0.5 0.21 l-9.88 0 q-0.28 0 -0.49 -0.21 t-0.21 -0.51 l0 -1.46 q0 -0.28 0.21 -0.49 t0.49 -0.21 l9.88 0 z M53.864000000000004 7.859999999999999 q-0.26 -0.04 -0.43 -0.24 t-0.17 -0.46 l0 -1.46 q0 -0.34 0.24 -0.54 t0.56 -0.16 q1.72 0.28 3.06 1.22 q1.74 1.26 2.46 3.34 q0.12 0.34 -0.08 0.64 t-0.58 0.3 l-1.6 0 q-0.22 0 -0.4 -0.11 t-0.26 -0.31 q-0.44 -1.04 -1.34 -1.66 q-0.7 -0.44 -1.46 -0.56 z M58.92400000000001 14.5 q0.38 0 0.58 0.3 t0.08 0.64 q-0.72 2.08 -2.46 3.34 q-1.34 0.94 -3.06 1.22 l-0.1 0 q-0.28 0 -0.46 -0.18 q-0.24 -0.18 -0.24 -0.52 l0 -1.46 q0 -0.26 0.16 -0.46 t0.42 -0.24 q0.84 -0.12 1.48 -0.56 q0.9 -0.62 1.34 -1.66 q0.08 -0.2 0.26 -0.31 t0.4 -0.11 l1.6 0 z M51.764 5.24 q0.26 0.2 0.26 0.54 l0 1.56 q0 0.22 -0.15 0.41 t-0.37 0.27 q-0.28 0.06 -0.44 0.14 q-0.8 0.36 -1.36 0.98 q-1.14 1.28 -1.14 3.35 t1.14 3.37 q0.7 0.8 1.8 1.12 q0.22 0.06 0.37 0.25 t0.15 0.41 l0 1.58 q0 0.34 -0.26 0.54 q-0.18 0.16 -0.46 0.16 l-0.14 0 q-2.14 -0.46 -3.62 -2.08 q-1.9 -2.14 -1.9 -5.34 t1.9 -5.34 q1.48 -1.64 3.62 -2.06 q0.32 -0.08 0.6 0.14 z M65.072 5 q0.3 0 0.51 0.21 t0.21 0.51 l0 1.46 q0 0.3 -0.21 0.51 t-0.51 0.21 l-2.06 0 q-0.28 0 -0.49 -0.21 t-0.21 -0.51 l0 -1.46 q0 -0.3 0.21 -0.51 t0.49 -0.21 l2.06 0 z M74.012 5 q0.28 0 0.49 0.21 t0.21 0.51 l0 1.46 q0 0.3 -0.21 0.51 t-0.49 0.21 l-4.02 0 l0 11.36 q0 0.28 -0.21 0.49 t-0.49 0.21 l-1.54 0 q-0.3 0 -0.51 -0.21 t-0.21 -0.49 l0 -13.54 q0 -0.3 0.21 -0.51 t0.51 -0.21 l6.26 0 z M87.86 14.1 l3.02 4.62 q0.22 0.36 0.02 0.72 q-0.08 0.16 -0.25 0.26 t-0.35 0.1 l-1.82 0 q-0.18 0 -0.34 -0.09 t-0.24 -0.23 l-3.04 -4.82 l-3.56 0 l0 4.44 q0 0.28 -0.21 0.49 t-0.49 0.21 l-1.52 0 q-0.28 0 -0.49 -0.21 t-0.21 -0.49 l0 -6.58 q0 -0.28 0.21 -0.49 t0.49 -0.21 l6.16 0 q1.76 0 2.34 -1 q0.2 -0.32 0.2 -0.92 q0 -0.94 -0.62 -1.48 q-0.64 -0.58 -1.84 -0.58 l-6.24 0 q-0.28 0 -0.49 -0.21 t-0.21 -0.49 l0 -1.44 q0 -0.28 0.21 -0.49 t0.49 -0.21 l6.42 0 q2.34 0 3.74 1.32 q1.46 1.32 1.46 3.58 q0 1.46 -0.64 2.49 t-1.86 1.57 z M108.22800000000001 18.86 q0.14 0.32 -0.07 0.65 t-0.57 0.33 l-13.32 0 q-0.18 0 -0.34 -0.09 t-0.24 -0.23 q-0.22 -0.32 -0.06 -0.66 l0.62 -1.46 q0.08 -0.2 0.26 -0.32 t0.38 -0.12 l9.32 0 l-3.28 -7.84 l-2.68 6.4 q-0.08 0.2 -0.25 0.31 t-0.39 0.11 l-1.68 0 q-0.38 0 -0.6 -0.32 q-0.08 -0.14 -0.1 -0.32 t0.04 -0.34 l4.06 -9.52 q0.08 -0.2 0.25 -0.32 t0.39 -0.12 l1.92 0 q0.22 0 0.39 0.12 t0.25 0.32 z"></path></g><g id="SvgjsG2202" featurekey="8L6ael-1" transform="matrix(4.18716505107452,0,0,4.18716505107452,-2.7377622249170055,106.08996677025539)" fill="url(#SvgjsLinearGradient2212)"><path d="M11.4 12.42 q0.86 0.54 1.31 1.32 t0.45 1.74 q0 2.26 -1.72 3.46 q-1.16 0.84 -3.14 1.06 l-0.08 0 q-0.28 0 -0.46 -0.18 q-0.24 -0.22 -0.24 -0.52 l0 -1.44 q0 -0.26 0.18 -0.46 t0.44 -0.24 q0.94 -0.1 1.46 -0.44 q0.4 -0.24 0.54 -0.62 q0.08 -0.22 0.08 -0.56 q0 -0.22 -0.08 -0.38 t-0.28 -0.3 q-0.58 -0.4 -1.5 -0.68 l-0.32 -0.1 q-1 -0.28 -1.84 -0.46 q-0.18 -0.04 -0.58 -0.14 l-0.22 -0.06 q-0.72 -0.18 -1.52 -0.5 q-1.18 -0.5 -1.94 -1.26 q-0.88 -0.88 -0.88 -2.32 q0 -1.98 1.52 -3.22 q1.04 -0.88 2.92 -1.12 q0.32 -0.04 0.55 0.18 t0.23 0.52 l0 1.44 q0 0.26 -0.16 0.46 t-0.41 0.23 t-0.51 0.11 q-0.58 0.22 -0.82 0.43 t-0.34 0.43 q-0.1 0.34 -0.1 0.64 q0 0.16 0.18 0.34 q0.28 0.28 0.82 0.5 q0.24 0.1 0.84 0.3 l2.5 0.62 l0.12 0.04 q0.94 0.26 1.36 0.4 q0.94 0.32 1.64 0.78 z M8.06 7.9 q-0.24 -0.06 -0.39 -0.25 t-0.15 -0.45 l0 -1.46 q0 -0.32 0.26 -0.54 q0.1 -0.1 0.26 -0.13 t0.3 -0.01 q1.76 0.28 2.86 1.2 q1.5 1.24 1.6 3.16 q0.02 0.28 -0.19 0.51 t-0.51 0.23 l-1.56 0 q-0.26 0 -0.46 -0.18 t-0.22 -0.44 q-0.08 -0.52 -0.34 -0.86 q-0.42 -0.5 -1.3 -0.76 q-0.06 0 -0.08 -0.02 l-0.08 0 z M5.72 17.08 q0.24 0.04 0.4 0.24 t0.16 0.44 l0 1.48 q0 0.32 -0.24 0.54 q-0.2 0.16 -0.46 0.16 l-0.1 0 q-1.86 -0.28 -3.06 -1.22 q-1.56 -1.24 -1.76 -3.46 q-0.04 -0.32 0.18 -0.55 t0.52 -0.23 l1.58 0 q0.28 0 0.48 0.19 t0.22 0.47 q0.06 1 0.98 1.54 q0.42 0.24 1.1 0.4 z M18.668 5 q0.3 0 0.51 0.21 t0.21 0.51 l0 1.46 q0 0.3 -0.21 0.51 t-0.51 0.21 l-2.06 0 q-0.28 0 -0.49 -0.21 t-0.21 -0.51 l0 -1.46 q0 -0.3 0.21 -0.51 t0.49 -0.21 l2.06 0 z M27.608 5 q0.28 0 0.49 0.21 t0.21 0.51 l0 1.46 q0 0.3 -0.21 0.51 t-0.49 0.21 l-4.02 0 l0 11.36 q0 0.28 -0.21 0.49 t-0.49 0.21 l-1.54 0 q-0.3 0 -0.51 -0.21 t-0.21 -0.49 l0 -13.54 q0 -0.3 0.21 -0.51 t0.51 -0.21 l6.26 0 z M37.776 5.16 q0.24 0.2 0.24 0.54 l0 1.5 q0 0.26 -0.15 0.45 t-0.41 0.25 q-1.28 0.26 -2.18 1.22 q-1.22 1.28 -1.22 3.33 t1.22 3.35 q0.9 0.94 2.18 1.2 q0.26 0.06 0.41 0.25 t0.15 0.45 l0 1.5 q0 0.32 -0.24 0.54 q-0.22 0.16 -0.46 0.16 l-0.12 0 q-2.32 -0.38 -3.98 -2.1 q-2.08 -2.14 -2.08 -5.33 t2.08 -5.37 q1.62 -1.68 3.98 -2.08 q0.32 -0.06 0.58 0.14 z M44.056 7.1 q2.08 2.18 2.08 5.37 t-2.08 5.33 q-1.66 1.72 -3.98 2.1 l-0.12 0 q-0.24 0 -0.46 -0.16 q-0.24 -0.22 -0.24 -0.54 l0 -1.5 q0 -0.26 0.15 -0.45 t0.41 -0.25 q1.28 -0.26 2.18 -1.2 q1.22 -1.3 1.22 -3.35 t-1.22 -3.33 q-0.9 -0.96 -2.18 -1.22 q-0.26 -0.06 -0.41 -0.25 t-0.15 -0.45 l0 -1.5 q0 -0.34 0.25 -0.54 t0.57 -0.14 q2.36 0.4 3.98 2.08 z M59.784 14.1 l3.02 4.62 q0.22 0.36 0.02 0.72 q-0.08 0.16 -0.25 0.26 t-0.35 0.1 l-1.82 0 q-0.18 0 -0.34 -0.09 t-0.24 -0.23 l-3.04 -4.82 l-3.56 0 l0 4.44 q0 0.28 -0.21 0.49 t-0.49 0.21 l-1.52 0 q-0.28 0 -0.49 -0.21 t-0.21 -0.49 l0 -6.58 q0 -0.28 0.21 -0.49 t0.49 -0.21 l6.16 0 q1.76 0 2.34 -1 q0.2 -0.32 0.2 -0.92 q0 -0.94 -0.62 -1.48 q-0.64 -0.58 -1.84 -0.58 l-6.24 0 q-0.28 0 -0.49 -0.21 t-0.21 -0.49 l0 -1.44 q0 -0.28 0.21 -0.49 t0.49 -0.21 l6.42 0 q2.34 0 3.74 1.32 q1.46 1.32 1.46 3.58 q0 1.46 -0.64 2.49 t-1.86 1.57 z M77.572 16.96 q0.3 0 0.5 0.21 t0.2 0.51 l0 1.46 q0 0.28 -0.2 0.49 t-0.5 0.21 l-9.88 0 q-0.28 0 -0.49 -0.21 t-0.21 -0.49 l0 -1.46 q0 -0.3 0.21 -0.51 t0.49 -0.21 l9.88 0 z M67.692 13.86 q-0.28 0 -0.49 -0.21 t-0.21 -0.49 l0 -1.5 q0 -0.28 0.21 -0.49 t0.49 -0.21 l8.98 0 q0.3 0 0.51 0.21 t0.21 0.49 l0 1.5 q0 0.28 -0.21 0.49 t-0.51 0.21 l-8.98 0 z M77.572 5 q0.3 0 0.5 0.21 t0.2 0.49 l0 1.46 q0 0.3 -0.2 0.51 t-0.5 0.21 l-9.88 0 q-0.28 0 -0.49 -0.21 t-0.21 -0.51 l0 -1.46 q0 -0.28 0.21 -0.49 t0.49 -0.21 l9.88 0 z"></path></g></svg>